<?xml version="1.0" standalone="no"?>
<!DOCTYPE svg PUBLIC "-//W3C//DTD SVG 20010904//EN"
 "http://www.w3.org/TR/2001/REC-SVG-20010904/DTD/svg10.dtd">
<svg version="1.0" xmlns="http://www.w3.org/2000/svg"
 width="300.000000pt" height="300.000000pt" viewBox="0 0 300.000000 300.000000"
 preserveAspectRatio="xMidYMid meet">
<metadata>
Created by potrace 1.10, written by Peter Selinger 2001-2011
</metadata>
<g transform="translate(0.000000,300.000000) scale(0.100000,-0.100000)"
fill="#2caeba" stroke="none">
<path d="M1396 2449 c-379 -40 -666 -253 -797 -593 -75 -195 -95 -411 -52
-571 43 -160 125 -321 227 -447 43 -53 46 -60 25 -54 -67 18 -109 19 -129 1
-85 -77 90 -183 370 -224 744 -109 1407 336 1437 964 14 294 -119 581 -342
740 -133 95 -321 163 -510 185 -100 11 -116 11 -229 -1z m373 -68 c348 -88
563 -294 643 -617 29 -120 29 -296 0 -405 -99 -369 -423 -649 -862 -745 -133
-30 -448 -27 -590 5 -162 36 -270 87 -270 129 0 11 8 13 33 8 17 -3 62 -9 100
-12 59 -6 67 -5 67 11 0 9 -23 42 -51 73 -188 211 -299 513 -269 733 63 462
329 756 755 834 113 21 333 14 444 -14z"/>
<path d="M1345 2296 c-325 -64 -573 -307 -650 -636 -22 -94 -19 -250 5 -346
36 -141 130 -313 245 -449 l58 -68 -24 -18 c-21 -16 -22 -20 -9 -32 39 -36
209 -58 353 -46 336 28 681 201 829 417 44 64 96 182 119 270 29 111 36 289
15 372 -65 258 -300 463 -601 525 -112 23 -256 27 -340 11z m398 -70 c85 -25
191 -74 252 -115 53 -36 145 -134 180 -191 77 -126 99 -261 71 -429 -48 -284
-167 -455 -413 -593 -212 -119 -527 -183 -730 -148 -67 11 -72 13 -62 31 8 17
0 32 -51 95 -122 152 -198 286 -242 424 -19 62 -23 97 -23 195 1 144 17 213
80 340 101 206 271 347 486 405 110 30 328 23 452 -14z"/>
<path d="M1423 2041 c-39 -11 -84 -26 -100 -34 -25 -13 -32 -13 -57 0 -53 28
-132 -1 -163 -60 -13 -25 -15 -70 -15 -251 0 -283 29 -552 67 -626 27 -52 101
-68 163 -36 52 27 55 43 37 183 -9 69 -14 127 -12 129 6 6 157 -110 212 -163
28 -26 77 -78 110 -116 56 -62 64 -67 100 -67 61 0 114 42 115 91 0 36 -115
195 -211 292 l-77 77 43 26 c96 56 179 177 191 276 5 44 1 63 -21 112 -37 84
-70 122 -131 152 -72 35 -156 40 -251 15z m251 -50 c30 -15 60 -40 79 -67 28
-40 30 -49 28 -121 -1 -60 -8 -90 -27 -130 -28 -59 -108 -136 -177 -173 -26
-14 -47 -28 -47 -33 0 -4 38 -45 84 -90 87 -86 226 -265 226 -291 0 -18 -49
-46 -79 -46 -12 0 -42 27 -80 73 -89 109 -321 297 -367 297 -23 0 -24 -16 -9
-136 25 -198 21 -214 -53 -214 -62 0 -86 73 -112 345 -11 121 -12 476 -1 515
4 13 22 33 40 44 34 20 34 20 69 0 l35 -21 57 24 c146 59 247 66 334 24z"/>
<path d="M1582 1978 c-15 -15 -3 -38 18 -38 33 0 89 -63 96 -108 5 -32 11 -42
25 -42 44 0 7 119 -49 159 -43 30 -77 42 -90 29z"/>
<path d="M1427 1890 c-42 -11 -133 -55 -141 -69 -4 -5 -3 -75 0 -155 6 -114
10 -146 21 -146 21 0 111 48 175 93 64 44 99 85 116 136 18 52 15 78 -15 111
-32 34 -91 46 -156 30z m115 -47 c24 -22 23 -77 -2 -118 -24 -38 -67 -73 -150
-120 l-60 -34 0 113 c0 113 0 114 27 132 64 41 155 55 185 27z"/>
<path d="M1682 1730 c-14 -31 -10 -50 12 -50 14 0 48 65 39 74 -15 15 -39 4
-51 -24z"/>
</g>
</svg>
