<?xml version="1.0" standalone="no"?>
<!DOCTYPE svg PUBLIC "-//W3C//DTD SVG 20010904//EN"
 "http://www.w3.org/TR/2001/REC-SVG-20010904/DTD/svg10.dtd">
<svg version="1.0" xmlns="http://www.w3.org/2000/svg"
 width="1536.000000pt" height="1536.000000pt" viewBox="0 0 1536.000000 1536.000000"
 preserveAspectRatio="xMidYMid meet">
<metadata>
Created by potrace 1.10, written by Peter Selinger 2001-2011
</metadata>
<g transform="translate(0.000000,1536.000000) scale(0.100000,-0.100000)"
fill="#2caeba" stroke="none">
<path d="M6375 12874 c-405 -43 -616 -79 -870 -149 -183 -50 -468 -145 -565
-187 -25 -10 -54 -23 -65 -28 -11 -4 -69 -32 -130 -60 -60 -29 -125 -59 -142
-66 -47 -20 -276 -153 -379 -220 -281 -182 -572 -437 -783 -684 -253 -297
-400 -521 -597 -910 -58 -114 -182 -423 -226 -560 -11 -36 -24 -73 -29 -82
-10 -20 -11 -23 -83 -308 -29 -118 -61 -253 -70 -300 -10 -47 -22 -107 -28
-134 -6 -26 -14 -74 -18 -105 -11 -81 -29 -206 -41 -281 -17 -106 -22 -327 -9
-450 6 -63 15 -153 19 -200 21 -210 121 -643 203 -875 11 -33 27 -78 35 -100
7 -22 18 -49 23 -60 5 -11 20 -49 34 -85 83 -214 243 -552 296 -625 4 -5 24
-41 44 -80 41 -77 39 -74 144 -237 140 -218 457 -639 505 -669 15 -10 0 -39
-20 -39 -46 1 -164 23 -241 45 -171 50 -301 27 -398 -69 -40 -41 -54 -63 -64
-105 -43 -180 99 -343 452 -518 211 -106 362 -160 636 -227 31 -8 84 -21 117
-30 86 -22 186 -43 295 -61 52 -9 120 -20 150 -26 73 -12 365 -47 515 -60 66
-6 311 -13 545 -16 375 -4 452 -2 651 16 315 29 490 54 754 107 130 26 169 34
199 43 17 6 60 17 96 27 94 24 354 101 435 129 118 40 215 75 233 85 9 5 64
28 122 51 206 82 491 221 650 318 25 15 52 30 60 34 8 4 27 15 41 25 15 9 67
41 115 71 102 63 112 69 334 233 534 392 983 890 1282 1418 111 197 157 295
293 625 91 221 199 665 237 975 28 224 15 740 -23 955 -6 33 -13 76 -15 95 -6
48 -33 184 -49 250 -8 30 -29 114 -46 185 -29 118 -86 310 -108 360 -5 11 -16
40 -26 65 -18 49 -29 75 -67 160 -14 30 -38 84 -54 120 -28 65 -41 90 -104
205 -152 276 -353 546 -579 778 -107 110 -272 257 -371 332 -36 27 -67 52 -70
56 -7 9 -232 158 -305 201 -155 93 -355 194 -525 265 -47 19 -99 41 -116 49
-43 19 -376 128 -454 148 -87 24 -168 46 -207 57 -18 6 -54 14 -80 18 -27 5
-95 18 -153 30 -114 22 -233 41 -460 71 -122 17 -199 20 -480 19 -204 -1 -386
-7 -465 -15z m812 -179 c76 -8 167 -19 203 -24 36 -6 101 -15 145 -21 145 -20
409 -73 515 -105 25 -8 74 -22 110 -31 160 -43 400 -124 525 -179 17 -7 41
-17 55 -23 50 -20 376 -183 405 -202 17 -11 37 -23 45 -27 39 -17 217 -136
325 -217 200 -149 359 -295 541 -497 82 -90 271 -350 353 -485 69 -115 179
-328 223 -434 5 -14 16 -38 23 -55 84 -190 192 -554 225 -755 5 -30 13 -73 19
-95 36 -150 61 -428 61 -694 0 -254 -20 -464 -65 -671 -8 -36 -16 -76 -19 -90
-3 -14 -12 -50 -20 -80 -8 -30 -22 -84 -31 -120 -21 -85 -88 -286 -126 -380
-17 -41 -35 -84 -39 -95 -45 -111 -170 -366 -226 -462 -38 -64 -173 -278 -188
-298 -9 -11 -53 -69 -98 -130 -45 -60 -91 -121 -103 -135 -135 -156 -190 -216
-315 -340 -80 -80 -190 -183 -245 -228 -55 -46 -111 -94 -125 -105 -104 -89
-381 -282 -585 -407 -146 -89 -457 -252 -585 -305 -36 -15 -83 -35 -105 -45
-22 -10 -65 -27 -95 -39 -30 -12 -64 -26 -75 -30 -137 -57 -285 -106 -515
-171 -41 -11 -96 -27 -121 -35 -26 -8 -53 -15 -62 -15 -8 0 -37 -6 -63 -14
-145 -42 -380 -83 -729 -125 -306 -37 -846 -53 -1089 -31 -61 5 -174 14 -251
20 -326 24 -704 81 -900 135 -27 8 -81 22 -120 30 -125 29 -301 82 -390 117
-27 11 -68 27 -90 36 -22 8 -107 48 -190 88 -253 123 -346 233 -271 321 21 24
31 28 73 27 26 -1 77 -11 113 -23 95 -32 273 -60 451 -72 177 -11 201 -7 225
45 29 59 23 69 -207 321 -53 58 -239 292 -279 350 -19 28 -60 85 -91 127 -32
43 -80 115 -109 160 -28 46 -75 121 -104 168 -132 214 -290 537 -382 780 -7
19 -23 60 -34 90 -88 225 -188 617 -224 880 -54 385 -49 549 30 1000 37 208
116 555 156 680 29 92 42 127 54 157 8 17 14 36 14 42 0 6 6 25 14 43 8 18 36
89 62 158 48 127 86 215 131 305 76 150 157 302 167 315 7 8 35 51 62 95 59
97 216 311 308 420 126 149 413 428 509 494 12 8 46 35 76 59 65 53 202 145
326 219 50 29 97 58 105 63 76 49 483 235 577 264 27 8 93 30 148 49 95 32
136 44 265 80 206 57 321 80 625 123 276 39 774 53 1002 29z"/>
<path d="M6410 12223 c-174 -13 -437 -53 -580 -88 -36 -9 -81 -20 -100 -24
-44 -10 -105 -29 -148 -47 -18 -8 -39 -14 -47 -14 -8 0 -29 -6 -47 -14 -18 -8
-87 -36 -153 -62 -153 -60 -250 -107 -455 -222 -77 -43 -240 -152 -345 -231
-395 -295 -762 -714 -1006 -1146 -100 -177 -233 -467 -281 -610 -10 -33 -23
-69 -28 -80 -24 -58 -93 -327 -123 -480 -56 -286 -75 -552 -58 -792 18 -245
39 -376 102 -643 30 -123 104 -356 138 -435 5 -11 39 -92 76 -180 112 -267
285 -586 447 -825 145 -215 143 -212 327 -451 68 -89 251 -308 280 -337 9 -9
35 -39 56 -65 46 -58 43 -68 -33 -107 -77 -39 -92 -56 -92 -105 0 -64 14 -76
158 -129 301 -112 788 -170 1234 -147 215 11 521 42 603 61 22 5 85 16 140 26
55 9 116 21 135 26 19 6 55 13 80 18 25 4 70 14 100 23 30 8 109 29 175 47
192 50 439 127 510 160 11 5 49 19 85 31 101 34 126 44 260 99 69 29 140 56
158 60 18 4 39 13 46 19 7 6 71 40 142 76 741 371 1279 851 1641 1466 52 89
203 393 203 409 0 6 4 18 10 28 18 32 67 166 105 287 57 186 63 206 79 270 8
33 20 80 27 105 7 25 16 65 20 90 4 25 15 83 23 130 20 102 51 339 67 505 21
220 -5 597 -56 815 -172 727 -633 1367 -1307 1813 -183 121 -439 260 -603 328
-11 4 -41 17 -67 28 -25 12 -100 39 -165 62 -120 41 -137 47 -231 73 -28 8
-56 17 -61 21 -5 3 -29 10 -53 15 -24 5 -72 17 -108 26 -186 46 -439 85 -695
109 -146 13 -458 18 -585 8z m520 -193 c258 -16 541 -59 765 -116 58 -15 86
-23 210 -59 137 -41 346 -114 359 -126 6 -5 16 -9 23 -9 19 0 371 -173 451
-222 434 -262 765 -574 1013 -953 81 -124 201 -356 229 -445 5 -14 18 -50 30
-80 134 -343 179 -766 130 -1200 -35 -311 -69 -509 -111 -646 -5 -16 -13 -50
-18 -75 -5 -24 -16 -66 -25 -94 -8 -27 -28 -95 -45 -150 -17 -55 -42 -129 -57
-165 -14 -36 -32 -81 -39 -100 -23 -62 -25 -65 -34 -80 -5 -8 -39 -76 -76
-150 -73 -148 -102 -202 -148 -270 -17 -25 -48 -72 -70 -105 -211 -319 -609
-695 -967 -915 -47 -29 -92 -58 -100 -65 -8 -7 -37 -25 -65 -40 -175 -97 -252
-137 -343 -181 -86 -41 -104 -53 -109 -76 -5 -24 -9 -26 -38 -21 -26 4 -67 -9
-182 -56 -82 -33 -153 -61 -157 -61 -4 0 -22 -6 -39 -14 -18 -8 -41 -16 -52
-19 -11 -3 -45 -15 -75 -27 -114 -44 -329 -109 -545 -165 -27 -7 -70 -19 -95
-26 -25 -7 -63 -15 -85 -20 -22 -4 -73 -14 -113 -23 -550 -123 -1225 -139
-1696 -41 -165 34 -205 49 -206 77 0 4 4 9 9 13 5 3 17 28 26 56 27 79 14 105
-138 285 -137 162 -200 241 -352 441 -104 136 -93 121 -210 294 -111 164 -202
316 -285 474 -35 66 -71 134 -80 150 -17 31 -141 321 -166 388 -8 20 -20 54
-28 75 -8 20 -20 55 -29 77 -19 52 -51 162 -72 250 -9 39 -20 86 -25 105 -13
55 -37 185 -54 300 -19 122 -23 607 -6 687 6 26 14 82 19 123 10 83 28 187 42
240 5 19 21 85 35 145 100 415 322 883 587 1239 348 466 752 806 1260 1058 79
39 290 126 362 148 22 7 56 18 75 25 351 124 814 175 1310 145z"/>
<path d="M6655 11085 c-55 -7 -131 -21 -170 -30 -38 -9 -86 -20 -105 -24 -19
-4 -51 -13 -70 -19 -19 -6 -62 -20 -95 -31 -34 -11 -72 -24 -85 -29 -14 -5
-43 -17 -65 -25 -22 -9 -93 -36 -157 -62 l-116 -47 -68 41 c-86 52 -118 62
-225 68 -140 9 -271 -36 -399 -138 -70 -55 -124 -132 -165 -233 -36 -90 -57
-499 -57 -1106 0 -576 18 -966 67 -1470 9 -85 20 -197 25 -247 5 -51 14 -110
19 -130 6 -21 11 -55 11 -75 0 -21 6 -73 14 -115 8 -43 22 -123 31 -178 37
-229 68 -384 86 -445 55 -177 212 -322 391 -361 156 -33 392 38 513 155 94 92
118 183 95 366 -6 52 -15 133 -20 180 -4 47 -13 119 -18 160 -15 102 -32 245
-42 360 -5 52 -14 119 -19 149 -15 73 -14 101 3 107 27 10 303 -178 569 -389
150 -119 214 -173 372 -317 181 -164 450 -465 558 -625 122 -180 320 -270 504
-228 159 36 311 147 376 273 34 65 37 79 37 151 0 95 -6 108 -119 269 -477
674 -705 944 -1096 1297 -78 71 -79 72 -60 92 10 12 22 21 27 21 5 0 35 17 66
37 31 20 89 57 127 82 210 135 439 362 568 560 82 127 86 133 96 156 5 11 18
41 30 65 92 198 141 514 111 710 -18 114 -20 118 -49 128 -22 8 -30 20 -45 73
-50 180 -160 365 -300 505 -163 162 -336 257 -566 309 -101 23 -445 29 -585
10z m511 -160 c150 -21 243 -48 349 -101 198 -99 327 -226 474 -468 45 -75 49
-95 24 -132 -15 -23 -15 -39 -4 -177 23 -267 -20 -492 -132 -697 -173 -317
-464 -582 -877 -797 -74 -39 -99 -58 -114 -85 -29 -53 -11 -85 93 -166 123
-96 147 -117 341 -312 285 -284 426 -456 772 -941 37 -52 93 -130 125 -174 50
-70 57 -86 58 -127 0 -42 -5 -52 -40 -88 -23 -24 -77 -59 -131 -85 -82 -41
-98 -45 -163 -45 -115 0 -159 30 -274 185 -143 191 -391 467 -543 605 -250
226 -301 268 -525 437 -175 133 -270 199 -424 296 -77 49 -156 100 -176 113
-72 49 -119 50 -168 3 -22 -21 -23 -27 -18 -103 3 -45 10 -119 16 -166 25
-195 33 -269 41 -350 4 -47 12 -121 18 -165 6 -44 18 -143 27 -220 9 -77 23
-187 30 -245 14 -105 14 -105 -10 -156 -45 -93 -158 -147 -309 -147 -75 0 -99
4 -134 22 -106 54 -178 158 -201 291 -7 36 -19 101 -27 145 -20 107 -45 252
-50 295 -3 19 -11 76 -19 125 -40 254 -64 476 -100 915 -11 135 -35 813 -35
1000 0 385 29 1005 51 1089 18 66 109 158 205 207 68 34 84 38 148 38 87 -1
146 -25 219 -89 61 -53 93 -57 167 -20 45 23 188 82 305 127 184 70 397 129
535 148 240 33 325 36 476 15z"/>
<path d="M7138 10764 c-34 -18 -48 -43 -48 -84 0 -41 35 -75 97 -93 170 -51
321 -182 392 -339 30 -69 61 -204 61 -270 0 -33 6 -47 27 -65 38 -33 92 -31
126 5 25 26 27 35 27 105 0 188 -86 382 -234 530 -77 77 -249 181 -353 212
-58 18 -61 18 -95 -1z"/>
<path d="M6560 10374 c-187 -22 -544 -160 -718 -277 -81 -55 -77 -8 -63 -640
6 -309 11 -593 11 -631 0 -65 2 -70 35 -103 30 -30 41 -35 68 -30 34 5 332
148 487 233 249 136 485 319 617 477 82 98 110 141 154 233 72 153 88 348 39
477 -42 112 -127 191 -258 238 -45 16 -87 21 -197 24 -77 2 -156 1 -175 -1z
m291 -171 c76 -24 141 -91 163 -165 65 -223 -82 -500 -384 -724 -47 -35 -89
-67 -95 -72 -87 -68 -515 -298 -540 -289 -20 8 -24 69 -30 547 l-7 435 24 21
c28 27 210 123 298 159 36 14 74 30 85 35 151 65 372 90 486 53z"/>
<path d="M7660 9767 c-30 -11 -40 -24 -87 -117 -60 -121 -66 -164 -29 -207 19
-21 33 -28 64 -28 22 0 48 7 58 15 22 19 124 231 124 259 0 25 -47 77 -75 85
-11 2 -36 -1 -55 -7z"/>
</g>
</svg>
